<svg viewBox="0 0 30 30" fill="none" xmlns="http://www.w3.org/2000/svg"><circle cx="15" cy="15" r="15" fill="#00C00D"/><path fill-rule="evenodd" clip-rule="evenodd" d="M8.587 11c-.148.01-.444.1-.444.389V21.5c0 1.25 1.206 1.5 1.714 1.5h10.349c1.587-.056 1.65-1.367 1.65-1.5V11.389a.425.425 0 0 0-.444-.389H8.587zM11 20.5v-7.056c.127-.666 1.016-.694 1.143 0V20.5c-.032.639-1.048.722-1.143 0zm3.428 0v-7.056c.127-.666 1.016-.694 1.143 0V20.5c-.032.639-1.048.722-1.143 0zm3.397 0v-7.056c.127-.666 1.016-.694 1.143 0V20.5c-.032.639-1.048.722-1.143 0z" fill="#fff"/><path d="M7.413 10C7.275 10.01 7 9.944 7 9.611v-.944A.828.828 0 0 1 7.825 8h4.032l.349-.639c.074-.12.33-.361.762-.361h4.158c.17.028.54.139.667.361.127.222.286.519.35.639h4.03c.276.019.826.189.826.722v.89c.01.129-.063.388-.444.388H7.413z" fill="#fff"/></svg>
