<svg viewBox="0 0 30 30" fill="none" xmlns="http://www.w3.org/2000/svg"><path d="M4.734 8.484l3.75-3.75A.624.624 0 0 1 9 4.5c.219 0 .39.078.516.234l3.75 3.75c.25.22.312.485.187.797-.125.313-.36.469-.703.469H10.5v15c0 .219-.078.39-.234.516a.624.624 0 0 1-.516.234h-1.5a.767.767 0 0 1-.563-.234c-.125-.125-.187-.297-.187-.516v-15H5.25c-.344 0-.578-.156-.703-.469-.125-.312-.063-.578.187-.797zm14.11 4.594a.695.695 0 0 1-.188.328.577.577 0 0 1-.328.094h-1.687a.577.577 0 0 1-.47-.234.593.593 0 0 1-.046-.516l2.672-7.875c.094-.25.265-.375.515-.375h1.875c.25 0 .422.125.516.375l2.672 7.875a.517.517 0 0 1-.094.516.46.46 0 0 1-.422.234h-1.687c-.281 0-.453-.14-.516-.422l-.422-1.312H19.22l-.375 1.312zm1.078-3.656h.656l-.328-1.078-.328 1.078zm.61 13.453l3.14-4.5a.578.578 0 0 0 .094-.328v-.985a.445.445 0 0 0-.188-.375.445.445 0 0 0-.375-.187h-5.812a.583.583 0 0 0-.422.188.507.507 0 0 0-.14.375v1.359c0 .156.046.297.14.422.125.093.265.14.422.14h2.625l-3.235 4.594a.45.45 0 0 0-.14.328v1.032c0 .156.047.28.14.375a.583.583 0 0 0 .422.187h6.094a.446.446 0 0 0 .375-.188.445.445 0 0 0 .187-.375v-1.359a.446.446 0 0 0-.187-.375.446.446 0 0 0-.375-.187h-2.86l.094-.141z" fill="#00C00D"/></svg>
