<svg viewBox="0 0 30 30" fill="none" xmlns="http://www.w3.org/2000/svg"><path d="M23.86 16.64l1.968 1.172a.42.42 0 0 1 .235.282.53.53 0 0 1 .046.375 11.635 11.635 0 0 1-2.578 4.406.695.695 0 0 1-.328.188.529.529 0 0 1-.375-.047l-1.969-1.172A8.978 8.978 0 0 1 18 23.484v2.297a.45.45 0 0 1-.14.328.42.42 0 0 1-.282.235 11.957 11.957 0 0 1-5.156 0 .59.59 0 0 1-.328-.235.577.577 0 0 1-.094-.328v-2.297a8.977 8.977 0 0 1-2.86-1.64l-1.968 1.172a.529.529 0 0 1-.375.047.695.695 0 0 1-.328-.188 11.636 11.636 0 0 1-2.578-4.406.762.762 0 0 1 0-.375.613.613 0 0 1 .28-.282l1.97-1.171a9.64 9.64 0 0 1 0-3.282l-1.97-1.171a.613.613 0 0 1-.28-.282.762.762 0 0 1 0-.375 11.636 11.636 0 0 1 2.578-4.406.695.695 0 0 1 .328-.188.529.529 0 0 1 .375.047L9.14 8.156A8.976 8.976 0 0 1 12 6.516V4.219c0-.125.031-.235.094-.328a.59.59 0 0 1 .328-.235 11.957 11.957 0 0 1 5.156 0 .42.42 0 0 1 .281.235.45.45 0 0 1 .141.328v2.297a8.977 8.977 0 0 1 2.86 1.64l1.968-1.172a.529.529 0 0 1 .375-.046.695.695 0 0 1 .328.187 11.636 11.636 0 0 1 2.578 4.406.53.53 0 0 1-.047.375.42.42 0 0 1-.234.281L23.86 13.36a9.64 9.64 0 0 1 0 3.282zM18.75 15c0-1.031-.375-1.906-1.125-2.625-.719-.75-1.594-1.125-2.625-1.125s-1.922.375-2.672 1.125c-.719.719-1.078 1.594-1.078 2.625s.36 1.922 1.078 2.672c.75.719 1.64 1.078 2.672 1.078 1.031 0 1.906-.36 2.625-1.078.75-.75 1.125-1.64 1.125-2.672z" fill="#00C00D"/></svg>
