<svg viewBox="0 0 30 30" fill="none" xmlns="http://www.w3.org/2000/svg"><path d="M26.58 9.032c-2.134-1.17-6.605-2.32-7.428 2.433-.324 1.871.724 3.462 2.438 4.257 3.2 1.685 2.59 1.872 2.704 2.48.114.608-.571 2.62-5.066 0 0-.075-.152 1.81-.228 2.76 2.603 1.404 8.113 2.246 7.998-3.368-.051-2.527-2.17-3.229-2.932-3.65-.648-.636-2.59-.608-2.286-2.48.305-1.87 3.276-.888 4.57.375l.23-2.807z" fill="#fff"/><path fill-rule="evenodd" clip-rule="evenodd" d="M3 8v13.896c0 .034.017.104.084.104h1.895c.028 0 .083-.02.083-.104V17.17c0-.011.006-.034.028-.034h2.146c1.227.057 3.696-.786 3.763-4.62C11.066 8.68 8.574 8 7.236 8H3zm2.062 6.948v-4.829h1.812c.446 0 2.012.202 2.034 2.397.023 2.196-1.347 2.56-2.034 2.467H5.09c-.022 0-.028-.024-.028-.035zM14.476 14.003c-1.371 0-3.476.937-3.476 3.985C11 21.118 13.128 22 14.5 22c2.72 0 3.5-2.54 3.5-4.012-.07-2.728-1.797-4.065-3.524-3.985zm-1.75 3.985c0-1.524.686-2.433 1.75-2.433.568 0 1.75.32 1.774 2.433.024 2.113-1.182 2.46-1.774 2.46-1.277 0-1.75-1.176-1.75-2.46z" fill="#fff"/></svg>
