<svg viewBox="0 0 30 30" fill="none" xmlns="http://www.w3.org/2000/svg"><path d="M24.938 10.5H5.063a.686.686 0 0 1-.422-.14.686.686 0 0 1-.141-.422V8.25c0-.625.219-1.156.656-1.594A2.17 2.17 0 0 1 6.75 6H9V3.562c0-.156.047-.28.14-.374A.583.583 0 0 1 9.563 3h1.876c.156 0 .28.063.374.188a.445.445 0 0 1 .188.374V6h6V3.562c0-.156.047-.28.14-.374A.583.583 0 0 1 18.563 3h1.875c.157 0 .282.063.375.188a.445.445 0 0 1 .188.374V6h2.25a2.17 2.17 0 0 1 1.594.656c.437.438.656.969.656 1.594v1.688a.583.583 0 0 1-.188.421.507.507 0 0 1-.375.141zM5.063 12h19.875c.156 0 .28.063.375.188a.445.445 0 0 1 .187.374V24.75a2.17 2.17 0 0 1-.656 1.594A2.17 2.17 0 0 1 23.25 27H6.75a2.17 2.17 0 0 1-1.594-.656A2.17 2.17 0 0 1 4.5 24.75V12.562c0-.156.047-.28.14-.374A.583.583 0 0 1 5.064 12zm14.812 6.563a.445.445 0 0 0-.188-.375.445.445 0 0 0-.375-.188H16.5v-2.813a.445.445 0 0 0-.188-.374.445.445 0 0 0-.375-.188h-1.874a.583.583 0 0 0-.422.188.507.507 0 0 0-.141.374V18h-2.813a.583.583 0 0 0-.421.188.507.507 0 0 0-.141.375v1.875c0 .156.047.296.14.421.126.094.266.141.422.141H13.5v2.813c0 .156.047.28.14.375a.583.583 0 0 0 .422.187h1.876a.445.445 0 0 0 .374-.188.445.445 0 0 0 .188-.375V21h2.813a.507.507 0 0 0 .375-.14.583.583 0 0 0 .187-.422v-1.875z" fill="#00C00D"/></svg>
