<svg viewBox="0 0 30 30" fill="none" xmlns="http://www.w3.org/2000/svg"><circle cx="15" cy="15" r="15" fill="#00C00D"/><path d="M19.543 8.168l3.164 3.164a.337.337 0 0 1 0 .492l-7.7 7.7-3.234.351a.763.763 0 0 1-.597-.176.763.763 0 0 1-.176-.597l.352-3.235 7.699-7.699a.337.337 0 0 1 .492 0zm5.695-.809l-1.722-1.722a1.41 1.41 0 0 0-.985-.387 1.29 1.29 0 0 0-.949.387l-1.266 1.265a.337.337 0 0 0 0 .493l3.165 3.164a.337.337 0 0 0 .492 0l1.265-1.266a1.29 1.29 0 0 0 .387-.95c0-.374-.129-.702-.387-.984zm-6.363 10.055V21H7.625V9.75h8.086a.38.38 0 0 0 .281-.105l1.406-1.442c.141-.117.176-.258.106-.422-.07-.187-.2-.281-.387-.281H7.062c-.468 0-.867.164-1.195.492a1.627 1.627 0 0 0-.492 1.196v12.374c0 .47.164.868.492 1.196.328.328.727.492 1.196.492h12.375c.468 0 .867-.164 1.195-.492.328-.328.492-.727.492-1.195v-5.555c0-.188-.094-.317-.281-.387-.164-.07-.305-.035-.422.106l-1.406 1.406a.334.334 0 0 0-.141.281z" fill="#E5E5E5"/></svg>
