<svg viewBox="0 0 30 30" fill="none" xmlns="http://www.w3.org/2000/svg"><path d="M26.672 23.766l-4.688-4.688a1.085 1.085 0 0 0-.797-.328h-.75C21.813 17 22.5 15 22.5 12.75c0-1.781-.438-3.406-1.313-4.875a9.738 9.738 0 0 0-3.562-3.563C16.156 3.438 14.531 3 12.75 3c-1.781 0-3.422.438-4.922 1.313a9.853 9.853 0 0 0-3.516 3.562C3.438 9.344 3 10.969 3 12.75c0 1.781.438 3.422 1.313 4.922a9.97 9.97 0 0 0 3.515 3.515c1.5.875 3.14 1.313 4.922 1.313 2.25 0 4.25-.688 6-2.063v.75c0 .313.11.579.328.797l4.688 4.688c.218.219.484.328.797.328.312 0 .578-.11.796-.328l1.313-1.313c.219-.218.328-.484.328-.797 0-.312-.11-.578-.328-.796zM12.75 18.75a6.076 6.076 0 0 1-3.047-.797 5.944 5.944 0 0 1-2.156-2.156 6.077 6.077 0 0 1-.797-3.047c0-1.094.266-2.094.797-3a5.84 5.84 0 0 1 2.156-2.203 6.077 6.077 0 0 1 3.047-.797c1.094 0 2.094.266 3 .797a5.74 5.74 0 0 1 2.203 2.203c.531.906.797 1.906.797 3s-.266 2.11-.797 3.047a5.84 5.84 0 0 1-2.203 2.156 5.823 5.823 0 0 1-3 .797z" fill="#00C00D"/></svg>
