<svg viewBox="0 0 30 30" fill="none" xmlns="http://www.w3.org/2000/svg"><circle cx="15" cy="15" r="15" fill="#00C00D"/><path d="M9.922 16.5h11.156c.313 0 .578.11.797.328.219.219.328.485.328.797 0 .313-.11.578-.328.797L16.297 24a1.085 1.085 0 0 1-.797.328c-.313 0-.578-.11-.797-.328l-5.578-5.578a1.085 1.085 0 0 1-.328-.797c0-.313.11-.578.328-.797.219-.219.484-.328.797-.328zm11.953-4.922L16.297 6a1.085 1.085 0 0 0-.797-.328c-.313 0-.578.11-.797.328l-5.578 5.578a1.085 1.085 0 0 0-.328.797c0 .313.11.578.328.797.219.219.484.328.797.328h11.156c.313 0 .578-.11.797-.328.219-.219.328-.485.328-.797 0-.313-.11-.578-.328-.797z" fill="#fff"/></svg>
