<svg viewBox="0 0 30 30" fill="none" xmlns="http://www.w3.org/2000/svg"><circle cx="15" cy="15" r="15" fill="#00C00D"/><path d="M16.672 18.125h-2.344a.678.678 0 0 1-.498-.205.678.678 0 0 1-.205-.498V12.5h-2.578a.528.528 0 0 1-.527-.352c-.098-.253-.06-.468.117-.644L15.09 7.05a.562.562 0 0 1 .41-.176c.156 0 .293.059.41.176l4.453 4.453c.176.176.215.39.117.644a.528.528 0 0 1-.527.352h-2.578v4.922a.678.678 0 0 1-.205.498.678.678 0 0 1-.498.205zM23 17.891v3.28a.678.678 0 0 1-.205.499.678.678 0 0 1-.498.205H8.703a.678.678 0 0 1-.498-.205.678.678 0 0 1-.205-.498V17.89c0-.196.068-.362.205-.498a.678.678 0 0 1 .498-.206h3.985v.235c0 .45.156.84.468 1.172.332.312.723.468 1.172.468h2.344c.45 0 .83-.156 1.142-.468.332-.332.498-.723.498-1.172v-.235h3.985c.195 0 .361.069.498.206a.678.678 0 0 1 .205.498zm-3.633 2.578a.562.562 0 0 0-.176-.41.562.562 0 0 0-.41-.176.562.562 0 0 0-.41.176.562.562 0 0 0-.176.41c0 .156.059.293.176.41a.562.562 0 0 0 .41.176.562.562 0 0 0 .41-.176.562.562 0 0 0 .176-.41zm1.875 0a.562.562 0 0 0-.176-.41.562.562 0 0 0-.41-.176.562.562 0 0 0-.41.176.562.562 0 0 0-.176.41c0 .156.059.293.176.41a.562.562 0 0 0 .41.176.562.562 0 0 0 .41-.176.562.562 0 0 0 .176-.41z" fill="#fff"/></svg>
