<svg viewBox="0 0 30 30" fill="none" xmlns="http://www.w3.org/2000/svg"><path fill-rule="evenodd" clip-rule="evenodd" d="M5.357 8.162c0-.957.78-1.733 1.741-1.733h10.447c.961 0 1.74.776 1.74 1.733v8.32c0 .956-.779 1.732-1.74 1.732H7.098a1.737 1.737 0 0 1-1.74-1.733v-8.32zm6.338 1.733c0 .957-.78 1.733-1.741 1.733a1.737 1.737 0 0 1-1.741-1.733c0-.957.779-1.733 1.74-1.733.962 0 1.742.776 1.742 1.733zM8.213 13.02l-1.115 1.04v2.392h10.447v-3.085c-.453-.474-1.519-1.58-2.16-2.219-.64-.637-1.288-.265-1.531 0-.72.705-2.292 2.24-2.82 2.739-.53.499-.988.208-1.15 0l-.87-.867c-.307-.305-.662-.127-.801 0z" fill="#00C00D"/><path d="M21.503 19.286h1.027c.18 0 .649.108 1.081.54l5.84 5.834c.36.324.909 1.2.217 2.107l-1.839 1.837c-.432.432-1.406.594-1.946.054L19.61 23.39c-.108-.144-.324-.518-.324-.864v-1.08l2.217-2.161z" fill="#00C00D"/><circle cx="12.321" cy="12.321" r="10.821" stroke="#00C00D" stroke-width="3"/></svg>
