<svg viewBox="0 0 15 24" fill="none" xmlns="http://www.w3.org/2000/svg"><path d="M8.75 7.813V2.5H.937a.904.904 0 0 0-.664.273.904.904 0 0 0-.273.664v18.125c0 .26.091.482.273.665a.904.904 0 0 0 .664.273h13.126c.26 0 .481-.091.664-.273a.904.904 0 0 0 .273-.665V8.75H9.687a.904.904 0 0 1-.664-.273.904.904 0 0 1-.273-.665zm2.227 4.687h.937c.156 0 .274.065.352.195a.423.423 0 0 1 .117.39l-1.485 6.563a.491.491 0 0 1-.195.274.481.481 0 0 1-.273.078H8.945a.693.693 0 0 1-.312-.078.58.58 0 0 1-.156-.274l-.43-1.796c-.287-1.12-.456-1.836-.508-2.149l-.039-.39h-.04c0 .234-.038.494-.116.78l-.86 3.555a.492.492 0 0 1-.195.274.481.481 0 0 1-.273.078H4.57a.693.693 0 0 1-.312-.078.58.58 0 0 1-.156-.274l-1.446-6.562c-.052-.156-.039-.287.04-.39a.481.481 0 0 1 .39-.196h.977c.104 0 .195.04.273.117.104.052.156.143.156.274.521 2.474.807 4.062.86 4.765.026-.234.286-1.34.78-3.32l.352-1.484a.38.38 0 0 1 .157-.235.422.422 0 0 1 .312-.117h1.133c.104 0 .195.04.273.117a.38.38 0 0 1 .157.235c.729 2.994 1.12 4.687 1.171 5.078v-.117c0-.287.027-.651.079-1.094.13-.782.39-2.07.78-3.867 0-.105.04-.183.118-.235a.52.52 0 0 1 .313-.117zM15 7.266V7.5h-5v-5h.234c.26 0 .482.091.664.273l3.829 3.829a.904.904 0 0 1 .273.664z" fill="#fff"/></svg>
