<svg viewBox="0 0 26 26" fill="none" xmlns="http://www.w3.org/2000/svg"><path fill-rule="evenodd" clip-rule="evenodd" d="M13.154 6l-.966 1.05c-.362.512-.217 1.456.578 1.456h3.617v7.55c0 .315.333.944.94.944H20v6.059C20 24.683 18.88 26 17.5 26h-15C1.12 26 0 24.683 0 23.059V8.94C0 7.317 1.12 6 2.5 6h10.654zM6.6 14.823c1.38 0 2.5-1.316 2.5-2.94 0-1.625-1.12-2.942-2.5-2.942s-2.5 1.317-2.5 2.941c0 1.625 1.12 2.941 2.5 2.941zm-4.1 4.128l1.6-1.765c.2-.216.71-.518 1.15 0l1.25 1.47c.233.353.89.848 1.65 0 .76-.847 3.017-3.45 4.05-4.647.35-.45 1.28-1.082 2.2 0 .92 1.083 2.45 2.961 3.1 3.765v5.235h-15v-4.058z" fill="#00C00D"/><path d="M19.046.26s-5.481 5.986-5.853 6.39c-.371.403-.185 1.21.372 1.21h3.623v7.4c0 .336.372.74.743.74h3.159c.372 0 .743-.47.743-.942V7.861h3.623c.465 0 .743-.74.372-1.211-.372-.471-3.567-3.895-5.853-6.39-.259-.283-.557-.404-.929 0z" fill="#00C00D"/></svg>
