<svg viewBox="0 0 30 30" fill="none" xmlns="http://www.w3.org/2000/svg"><path d="M16.75 10.813V5.5H8.937a.904.904 0 0 0-.664.273.904.904 0 0 0-.273.665v18.125c0 .26.091.481.273.664a.904.904 0 0 0 .665.273h13.124c.26 0 .482-.091.665-.273a.904.904 0 0 0 .273-.665V11.75h-5.313a.904.904 0 0 1-.664-.273.904.904 0 0 1-.273-.665zm2.227 4.687h.937c.156 0 .273.065.352.195a.423.423 0 0 1 .117.39l-1.485 6.563a.491.491 0 0 1-.195.274.481.481 0 0 1-.273.078h-1.485a.693.693 0 0 1-.312-.078.58.58 0 0 1-.156-.274l-.43-1.796c-.287-1.12-.456-1.836-.508-2.149l-.039-.39h-.04c0 .234-.038.494-.116.78l-.86 3.555a.492.492 0 0 1-.195.274.482.482 0 0 1-.273.078H12.57a.693.693 0 0 1-.312-.078.58.58 0 0 1-.156-.274l-1.446-6.562c-.052-.156-.039-.286.04-.39a.481.481 0 0 1 .39-.196h.976c.105 0 .196.04.274.117.104.052.156.143.156.274.521 2.474.807 4.062.86 4.765.026-.234.286-1.34.78-3.32l.352-1.484a.38.38 0 0 1 .157-.235.423.423 0 0 1 .312-.117h1.133c.104 0 .195.04.273.117a.38.38 0 0 1 .157.235c.729 2.994 1.12 4.687 1.172 5.078v-.117c0-.287.026-.651.078-1.094.13-.782.39-2.07.78-3.867 0-.105.04-.183.118-.235a.52.52 0 0 1 .313-.117zM23 10.266v.234h-5v-5h.234c.26 0 .482.091.664.273l3.829 3.829a.904.904 0 0 1 .273.664z" fill="#fff"/></svg>
